<svg version="1.1" id="Layer_1" xmlns="http://www.w3.org/2000/svg" xmlns:xlink="http://www.w3.org/1999/xlink" x="0px" y="0px"
	 width="100%" viewBox="0 0 640 640" enable-background="new 0 0 640 640" xml:space="preserve">
<path fill="#FFFFFF" opacity="1.000000" stroke="none" 
	d="
M419.000000,641.000000 
	C279.333344,641.000000 140.166718,641.000000 1.000056,641.000000 
	C1.000037,427.666718 1.000037,214.333466 1.000019,1.000142 
	C214.333237,1.000095 427.666473,1.000095 640.999756,1.000047 
	C640.999878,214.333191 640.999878,427.666382 640.999939,640.999756 
	C567.166687,641.000000 493.333344,641.000000 419.000000,641.000000 
M126.254204,398.496307 
	C126.971375,402.905121 127.584396,407.333893 128.425400,411.718933 
	C130.875900,424.495941 133.769501,437.198822 135.833817,450.036194 
	C138.374817,465.838074 142.267563,481.132233 150.434616,495.022858 
	C169.450653,527.365479 211.773514,551.719299 251.483109,544.216248 
	C267.538177,541.182617 283.697510,538.703003 299.760712,535.710022 
	C317.796997,532.349426 335.759460,528.593384 353.789246,525.196350 
	C369.379700,522.258911 385.042236,519.704102 400.631470,516.760559 
	C418.635345,513.361023 436.507721,509.165863 454.599213,506.361206 
	C469.045868,504.121613 482.566956,500.070740 495.095612,492.524811 
	C517.743774,478.884064 532.595825,459.232239 540.924377,434.299133 
	C548.226562,412.438751 545.102234,390.741974 540.641296,368.961334 
	C537.923218,355.690430 535.537659,342.350983 533.042969,329.034821 
	C530.818665,317.162231 528.727661,305.264160 526.432190,293.405487 
	C524.458374,283.207947 522.154968,273.073639 520.222656,262.868713 
	C517.916870,250.691452 515.951843,238.449738 513.653381,226.270996 
	C511.266052,213.621078 508.116272,201.091614 506.266907,188.368896 
	C503.227692,167.460846 495.053375,149.023575 481.352448,133.101227 
	C470.279236,120.232590 456.651855,110.830643 440.688385,104.867775 
	C422.040405,97.902122 403.037689,95.850075 383.442993,100.141907 
	C373.795898,102.254906 364.080872,104.068504 354.371338,105.882362 
	C347.043091,107.251366 339.652100,108.286659 332.329376,109.682213 
	C320.176147,111.998390 308.070831,114.565750 295.917114,116.879257 
	C279.994293,119.910225 264.036530,122.757172 248.108124,125.759308 
	C235.788910,128.081207 223.506332,130.598694 211.180618,132.884445 
	C199.144150,135.116562 186.885269,136.432266 175.063538,139.471054 
	C158.531158,143.720749 143.680801,151.773758 131.182785,163.570297 
	C109.076401,184.435928 97.234581,210.083099 98.152054,240.600739 
	C98.526665,253.061478 101.536362,265.457092 103.545547,277.850189 
	C105.211731,288.127655 107.148895,298.361572 109.002357,308.608215 
	C111.151031,320.486847 113.256645,332.374176 115.535507,344.228058 
	C117.527618,354.590271 119.768875,364.904327 121.834084,375.252869 
	C123.320549,382.701324 124.698547,390.171387 126.254204,398.496307 
z"/>
<path fill="#603EC6" opacity="1.000000" stroke="none" 
	d="
M126.189560,398.064087 
	C124.698547,390.171387 123.320549,382.701324 121.834084,375.252869 
	C119.768875,364.904327 117.527618,354.590271 115.535507,344.228058 
	C113.256645,332.374176 111.151031,320.486847 109.002357,308.608215 
	C107.148895,298.361572 105.211731,288.127655 103.545547,277.850189 
	C101.536362,265.457092 98.526665,253.061478 98.152054,240.600739 
	C97.234581,210.083099 109.076401,184.435928 131.182785,163.570297 
	C143.680801,151.773758 158.531158,143.720749 175.063538,139.471054 
	C186.885269,136.432266 199.144150,135.116562 211.180618,132.884445 
	C223.506332,130.598694 235.788910,128.081207 248.108124,125.759308 
	C264.036530,122.757172 279.994293,119.910225 295.917114,116.879257 
	C308.070831,114.565750 320.176147,111.998390 332.329376,109.682213 
	C339.652100,108.286659 347.043091,107.251366 354.371338,105.882362 
	C364.080872,104.068504 373.795898,102.254906 383.442993,100.141907 
	C403.037689,95.850075 422.040405,97.902122 440.688385,104.867775 
	C456.651855,110.830643 470.279236,120.232590 481.352448,133.101227 
	C495.053375,149.023575 503.227692,167.460846 506.266907,188.368896 
	C508.116272,201.091614 511.266052,213.621078 513.653381,226.270996 
	C515.951843,238.449738 517.916870,250.691452 520.222656,262.868713 
	C522.154968,273.073639 524.458374,283.207947 526.432190,293.405487 
	C528.727661,305.264160 530.818665,317.162231 533.042969,329.034821 
	C535.537659,342.350983 537.923218,355.690430 540.641296,368.961334 
	C545.102234,390.741974 548.226562,412.438751 540.924377,434.299133 
	C532.595825,459.232239 517.743774,478.884064 495.095612,492.524811 
	C482.566956,500.070740 469.045868,504.121613 454.599213,506.361206 
	C436.507721,509.165863 418.635345,513.361023 400.631470,516.760559 
	C385.042236,519.704102 369.379700,522.258911 353.789246,525.196350 
	C335.759460,528.593384 317.796997,532.349426 299.760712,535.710022 
	C283.697510,538.703003 267.538177,541.182617 251.483109,544.216248 
	C211.773514,551.719299 169.450653,527.365479 150.434616,495.022858 
	C142.267563,481.132233 138.374817,465.838074 135.833817,450.036194 
	C133.769501,437.198822 130.875900,424.495941 128.425400,411.718933 
	C127.584396,407.333893 126.971375,402.905121 126.189560,398.064087 
M182.725662,422.613922 
	C183.101532,424.223022 183.506821,425.825867 183.848526,427.442200 
	C186.142914,438.294373 187.151581,449.620331 190.960526,459.910431 
	C200.349915,485.276367 224.242416,497.752441 250.761581,492.647461 
	C264.604218,489.982697 278.471130,487.441895 292.340973,484.921478 
	C300.831512,483.378601 309.376770,482.127197 317.847198,480.485535 
	C333.460419,477.459564 349.019043,474.151733 364.633057,471.130066 
	C381.076843,467.947784 397.567383,465.007843 414.021240,461.876617 
	C425.578674,459.677185 437.022858,456.627045 448.670135,455.211334 
	C469.459473,452.684357 486.531281,436.859711 491.813385,417.274811 
	C495.000793,405.456512 492.991638,393.658203 490.428528,381.783875 
	C486.194489,362.168579 482.914215,342.347321 479.238007,322.611725 
	C474.712067,298.314514 470.212524,274.012390 465.662018,249.719788 
	C463.067047,235.866760 460.500244,222.006927 457.714661,208.191711 
	C456.046570,199.918808 454.545563,191.545792 451.986938,183.531448 
	C444.544037,160.218506 417.681549,145.207993 393.623352,150.434647 
	C384.066071,152.511002 374.533661,154.721313 364.931885,156.569107 
	C345.061371,160.393021 325.152039,164.015396 305.258514,167.719574 
	C289.293091,170.692322 273.333405,173.696091 257.360046,176.625427 
	C243.495483,179.167999 229.557098,181.344513 215.759598,184.204987 
	C203.639328,186.717773 191.180161,188.702377 179.748032,193.166916 
	C162.849243,199.766327 153.780838,213.749207 150.011276,231.306732 
	C147.723038,241.964661 150.899185,252.104446 152.733307,262.345001 
	C155.949081,280.299805 159.486359,298.196869 162.855484,316.124420 
	C165.853989,332.079956 168.822830,348.041107 171.776337,364.005035 
	C175.340775,383.270935 178.875290,402.542389 182.725662,422.613922 
z"/>
<path fill="#FDFDFE" opacity="1.000000" stroke="none" 
	d="
M182.574203,422.212677 
	C178.875290,402.542389 175.340775,383.270935 171.776337,364.005035 
	C168.822830,348.041107 165.853989,332.079956 162.855484,316.124420 
	C159.486359,298.196869 155.949081,280.299805 152.733307,262.345001 
	C150.899185,252.104446 147.723038,241.964661 150.011276,231.306732 
	C153.780838,213.749207 162.849243,199.766327 179.748032,193.166916 
	C191.180161,188.702377 203.639328,186.717773 215.759598,184.204987 
	C229.557098,181.344513 243.495483,179.167999 257.360046,176.625427 
	C273.333405,173.696091 289.293091,170.692322 305.258514,167.719574 
	C325.152039,164.015396 345.061371,160.393021 364.931885,156.569107 
	C374.533661,154.721313 384.066071,152.511002 393.623352,150.434647 
	C417.681549,145.207993 444.544037,160.218506 451.986938,183.531448 
	C454.545563,191.545792 456.046570,199.918808 457.714661,208.191711 
	C460.500244,222.006927 463.067047,235.866760 465.662018,249.719788 
	C470.212524,274.012390 474.712067,298.314514 479.238007,322.611725 
	C482.914215,342.347321 486.194489,362.168579 490.428528,381.783875 
	C492.991638,393.658203 495.000793,405.456512 491.813385,417.274811 
	C486.531281,436.859711 469.459473,452.684357 448.670135,455.211334 
	C437.022858,456.627045 425.578674,459.677185 414.021240,461.876617 
	C397.567383,465.007843 381.076843,467.947784 364.633057,471.130066 
	C349.019043,474.151733 333.460419,477.459564 317.847198,480.485535 
	C309.376770,482.127197 300.831512,483.378601 292.340973,484.921478 
	C278.471130,487.441895 264.604218,489.982697 250.761581,492.647461 
	C224.242416,497.752441 200.349915,485.276367 190.960526,459.910431 
	C187.151581,449.620331 186.142914,438.294373 183.848526,427.442200 
	C183.506821,425.825867 183.101532,424.223022 182.574203,422.212677 
M223.760971,425.108551 
	C224.506302,425.073395 225.251617,425.038269 226.669266,424.998016 
	C227.454437,424.677521 228.239609,424.357025 229.741135,424.015137 
	C230.844498,423.723511 231.947845,423.431885 233.727768,423.088684 
	C234.520691,422.747101 235.313629,422.405518 236.548996,422.080261 
	C236.548996,422.080261 236.990524,422.048065 237.914261,422.062164 
	C247.310226,421.001740 256.714050,420.001160 266.087219,418.767578 
	C266.839325,418.668610 267.380219,416.964874 268.853516,416.025330 
	C271.930054,416.011383 275.187805,416.646851 278.045715,415.849426 
	C284.153748,414.145081 287.327728,416.919556 290.486938,421.646271 
	C299.850281,435.655396 309.618866,449.393127 319.169861,463.277679 
	C321.296173,466.368805 323.252136,466.941772 325.645996,463.593567 
	C334.958130,450.569031 344.828430,437.905365 353.457977,424.445129 
	C358.732574,416.217865 364.080841,411.286255 374.945099,415.845459 
	C378.921661,416.266235 382.898193,416.687012 387.147827,417.849304 
	C394.440033,419.201233 401.732239,420.553192 409.831818,421.983765 
	C412.218872,422.333923 414.605927,422.684082 417.287872,423.457825 
	C417.860870,423.340942 418.433838,423.224060 419.815704,423.115967 
	C420.897400,423.099365 421.979095,423.082733 423.803406,422.877533 
	C423.999054,420.890045 424.641571,418.824677 424.311127,416.928864 
	C423.043243,409.654602 421.284973,402.465149 420.042572,395.187225 
	C418.296387,384.958496 416.897949,374.670837 415.243011,364.425812 
	C414.650818,360.759644 414.797913,357.477051 418.181946,355.135529 
	C430.024353,346.941101 441.886627,338.775116 453.694519,330.531281 
	C457.929108,327.574860 462.030762,324.428040 466.567810,321.092651 
	C464.512543,319.143188 463.218018,317.594177 461.628571,316.457581 
	C446.427826,305.587463 431.140015,294.838501 416.002960,283.881012 
	C414.610199,282.872833 413.136658,280.548004 413.319214,279.029144 
	C414.324249,270.668701 415.741791,262.352936 417.191620,254.052155 
	C419.020538,243.580795 421.010437,233.137497 422.944092,222.684540 
	C423.667389,218.774368 421.829498,217.427109 418.223450,218.075714 
	C412.694855,219.070099 407.183807,220.164230 401.673950,221.259674 
	C395.589142,222.469376 389.538177,223.866547 383.428406,224.928543 
	C376.765045,226.086716 370.071167,227.148148 363.348206,227.840347 
	C361.075592,228.074356 358.021149,227.796051 356.475922,226.439621 
	C353.810272,224.099640 351.989685,220.771957 349.913635,217.789749 
	C340.917999,204.867538 331.921387,191.945602 323.015839,178.961349 
	C321.199127,176.312576 319.486816,176.699203 317.924866,178.836136 
	C316.464783,180.833649 315.584686,183.252548 314.142365,185.266068 
	C304.112396,199.267700 294.115021,213.296677 283.767212,227.061264 
	C282.555237,228.673431 279.168274,229.587646 276.966827,229.327194 
	C272.118835,228.753647 267.429749,226.953690 262.594482,226.133728 
	C249.291672,223.877884 235.943237,221.892258 222.621109,219.748550 
	C218.541351,219.092056 217.204712,220.556580 218.399796,224.607361 
	C218.911423,226.341537 219.675598,228.027679 219.971588,229.794861 
	C222.558212,245.238342 225.195175,260.675812 227.502777,276.161926 
	C228.073990,279.995300 230.150482,284.593597 225.879044,287.654083 
	C215.915588,294.792938 205.748123,301.646271 195.717865,308.692963 
	C189.519028,313.047943 183.420334,317.545410 176.539200,322.511169 
	C183.692017,327.932526 190.147812,333.011902 196.798340,337.821991 
	C206.464096,344.812897 216.124008,351.831726 226.081345,358.390869 
	C230.720932,361.447083 230.440475,365.316528 229.603012,369.633789 
	C228.483643,375.404388 227.137863,381.131012 226.012360,386.900513 
	C225.099823,391.578278 224.322495,396.284088 223.568024,400.990692 
	C222.392899,408.321472 221.287994,415.663513 220.164215,423.695221 
	C221.114487,424.156708 222.064758,424.618225 223.760971,425.108551 
z"/>
<path fill="#CED9D8" opacity="1.000000" stroke="none" 
	d="
M374.093323,415.684479 
	C364.080841,411.286255 358.732574,416.217865 353.457977,424.445129 
	C344.828430,437.905365 334.958130,450.569031 325.645996,463.593567 
	C323.252136,466.941772 321.296173,466.368805 319.169861,463.277679 
	C309.618866,449.393127 299.850281,435.655396 290.486938,421.646271 
	C287.327728,416.919556 284.153748,414.145081 278.045715,415.849426 
	C275.187805,416.646851 271.930054,416.011383 268.012085,416.023438 
	C259.811890,417.029205 252.424530,417.870514 245.108994,419.129364 
	C242.318069,419.609619 239.691818,421.046906 236.990524,422.048065 
	C236.990524,422.048065 236.548996,422.080261 236.025024,421.942200 
	C234.684418,422.249481 233.867798,422.694855 233.051178,423.140259 
	C231.947845,423.431885 230.844498,423.723511 229.183838,423.764160 
	C227.750000,424.009827 226.873474,424.506470 225.996948,425.003113 
	C225.251617,425.038269 224.506302,425.073395 223.341034,424.748352 
	C221.998505,423.925659 221.075928,423.463196 220.153336,423.000763 
	C221.287994,415.663513 222.392899,408.321472 223.568024,400.990692 
	C224.322495,396.284088 225.099823,391.578278 226.012360,386.900513 
	C227.137863,381.131012 228.483643,375.404388 229.603012,369.633789 
	C230.440475,365.316528 230.720932,361.447083 226.081345,358.390869 
	C216.124008,351.831726 206.464096,344.812897 196.798340,337.821991 
	C190.147812,333.011902 183.692017,327.932526 176.539200,322.511169 
	C183.420334,317.545410 189.519028,313.047943 195.717865,308.692963 
	C205.748123,301.646271 215.915588,294.792938 225.879044,287.654083 
	C230.150482,284.593597 228.073990,279.995300 227.502777,276.161926 
	C225.195175,260.675812 222.558212,245.238342 219.971588,229.794861 
	C219.675598,228.027679 218.911423,226.341537 218.399796,224.607361 
	C217.204712,220.556580 218.541351,219.092056 222.621109,219.748550 
	C235.943237,221.892258 249.291672,223.877884 262.594482,226.133728 
	C267.429749,226.953690 272.118835,228.753647 276.966827,229.327194 
	C279.168274,229.587646 282.555237,228.673431 283.767212,227.061264 
	C294.115021,213.296677 304.112396,199.267700 314.142365,185.266068 
	C315.584686,183.252548 316.464783,180.833649 317.924866,178.836136 
	C319.486816,176.699203 321.199127,176.312576 323.015839,178.961349 
	C331.921387,191.945602 340.917999,204.867538 349.913635,217.789749 
	C351.989685,220.771957 353.810272,224.099640 356.475922,226.439621 
	C358.021149,227.796051 361.075592,228.074356 363.348206,227.840347 
	C370.071167,227.148148 376.765045,226.086716 383.428406,224.928543 
	C389.538177,223.866547 395.589142,222.469376 401.673950,221.259674 
	C407.183807,220.164230 412.694855,219.070099 418.223450,218.075714 
	C421.829498,217.427109 423.667389,218.774368 422.944092,222.684540 
	C421.010437,233.137497 419.020538,243.580795 417.191620,254.052155 
	C415.741791,262.352936 414.324249,270.668701 413.319214,279.029144 
	C413.136658,280.548004 414.610199,282.872833 416.002960,283.881012 
	C431.140015,294.838501 446.427826,305.587463 461.628571,316.457581 
	C463.218018,317.594177 464.512543,319.143188 466.567810,321.092651 
	C462.030762,324.428040 457.929108,327.574860 453.694519,330.531281 
	C441.886627,338.775116 430.024353,346.941101 418.181946,355.135529 
	C414.797913,357.477051 414.650818,360.759644 415.243011,364.425812 
	C416.897949,374.670837 418.296387,384.958496 420.042572,395.187225 
	C421.284973,402.465149 423.043243,409.654602 424.311127,416.928864 
	C424.641571,418.824677 423.999054,420.890045 423.216217,422.696899 
	C421.421631,422.713226 420.214233,422.910187 419.006836,423.107178 
	C418.433838,423.224060 417.860870,423.340942 417.129669,422.838928 
	C414.678497,419.179474 411.899506,419.069366 409.024445,421.905121 
	C401.732239,420.553192 394.440033,419.201233 387.327637,417.410767 
	C387.659882,416.906830 387.834259,416.868500 387.958496,416.768158 
	C388.073029,416.675537 388.230530,416.427521 388.204376,416.398987 
	C385.646027,413.609497 377.188446,413.190155 374.093323,415.684479 
M315.653564,321.559357 
	C315.708282,324.049500 315.763031,326.539642 315.694183,329.829620 
	C315.528412,333.236542 315.362640,336.643463 314.610443,340.547241 
	C313.695099,346.688599 315.248230,350.415009 320.011536,351.720520 
	C323.880829,352.781036 326.469055,350.484161 328.254578,346.091278 
	C327.474457,330.061371 326.694336,314.031464 326.059784,297.168243 
	C326.047821,296.668823 326.068390,296.166107 326.018524,295.670502 
	C325.719971,292.703552 325.881439,288.929108 321.722595,289.072113 
	C317.691742,289.210815 317.130707,292.713409 317.153961,296.071869 
	C317.158508,296.732910 317.281281,297.393158 317.134735,298.960693 
	C316.831268,306.327759 316.527802,313.694824 315.653564,321.559357 
M380.499969,323.099579 
	C368.561920,323.099579 356.623901,323.099579 343.542847,323.099579 
	C344.207733,326.697266 343.720245,330.656311 345.453918,332.375610 
	C357.165466,343.990112 369.347137,355.130524 381.843689,366.862762 
	C402.474457,352.290375 424.507568,336.727509 447.192993,320.703827 
	C434.373718,311.443481 422.463318,302.839722 409.661407,293.591919 
	C408.265991,302.317780 406.927185,309.468384 406.042053,316.674713 
	C405.495850,321.121765 404.220612,323.693207 398.974304,323.258575 
	C393.185028,322.778931 387.327667,323.121155 380.499969,323.099579 
M276.854706,364.363861 
	C284.124756,357.127960 291.212830,349.694916 298.744720,342.742645 
	C302.295868,339.464813 300.137573,336.240265 299.603149,333.085999 
	C299.418640,331.997131 297.057861,330.532227 295.668060,330.506836 
	C280.678436,330.233093 265.683685,330.142517 250.692200,330.254669 
	C249.477554,330.263763 247.445984,331.967499 247.201202,333.170166 
	C245.249298,342.760284 243.623169,352.417114 241.924942,362.058380 
	C240.081680,372.522919 238.226654,382.985687 236.458618,393.463043 
	C235.509613,399.086853 234.732498,404.739685 233.737762,411.303650 
	C249.044632,408.693573 263.323669,406.258789 278.375519,403.692200 
	C277.134399,401.557159 276.338196,399.978302 275.352173,398.528473 
	C271.621796,393.043304 267.657715,387.705658 264.192078,382.060486 
	C263.407837,380.782990 263.559082,377.862610 264.510468,376.777313 
	C268.197723,372.571075 272.381775,368.800354 276.854706,364.363861 
M220.550034,305.030853 
	C212.527588,310.805145 204.505127,316.579468 196.264679,322.510681 
	C208.518204,331.371338 220.509094,340.042084 233.449402,349.399353 
	C235.059418,340.628448 236.871750,333.226868 237.634003,325.718658 
	C238.127625,320.856659 239.996628,319.769135 244.524536,319.848846 
	C261.178680,320.141998 277.839905,320.097687 294.497589,320.011566 
	C295.977234,320.003937 298.511383,319.020264 298.732635,318.066803 
	C299.466675,314.903595 299.607635,311.760651 296.724304,308.926788 
	C286.569855,298.946564 276.560028,288.810669 266.772095,278.471771 
	C264.100128,275.649384 262.437012,275.561584 259.337494,277.793640 
	C246.712936,286.884949 233.866821,295.668640 220.550034,305.030853 
M371.537750,274.022064 
	C363.878693,281.596161 356.488525,289.471527 348.462585,296.634552 
	C343.424591,301.130859 342.034637,305.775787 345.045135,312.963135 
	C360.671875,312.963135 376.783386,313.033478 392.891022,312.816101 
	C394.053558,312.800446 395.877045,310.861755 396.215179,309.520203 
	C397.633789,303.892029 398.721954,298.171295 399.716095,292.447144 
	C402.778442,274.814636 405.762360,257.168427 408.716736,239.517471 
	C409.062531,237.451645 409.033600,235.323090 409.257416,232.077072 
	C394.124390,234.532089 379.712952,236.870056 364.510681,239.336319 
	C368.644165,245.248123 372.112000,250.252060 375.625732,255.223541 
	C381.599884,263.676208 381.606476,263.662140 374.423889,271.008240 
	C373.613464,271.837128 372.909393,272.769989 371.537750,274.022064 
M334.084900,360.570068 
	C332.831696,362.981598 330.648193,365.336029 330.496002,367.815125 
	C329.997223,375.941437 330.086365,384.117676 330.336578,392.262848 
	C330.379639,393.664368 332.082092,395.865509 333.416779,396.227661 
	C338.843262,397.700165 344.401093,398.741211 349.954163,399.683990 
	C364.154846,402.094849 378.378357,404.371399 392.593872,406.694641 
	C398.533722,407.665375 404.476501,408.618408 411.142853,409.696747 
	C408.510651,394.220306 406.091400,379.995941 403.583008,365.247589 
	C401.841431,366.073547 400.920776,366.368927 400.158386,366.894043 
	C394.190796,371.005035 388.212219,375.102661 382.330078,379.333801 
	C380.362427,380.749146 378.817352,381.567535 376.757904,379.394562 
	C371.540405,373.889587 366.111877,368.585205 360.864319,363.108063 
	C354.725281,356.700378 348.688385,350.194885 342.501495,343.619507 
	C339.418915,349.958557 336.979034,354.975952 334.084900,360.570068 
M235.964981,254.662750 
	C237.131332,262.143951 238.297684,269.625122 239.581909,277.862335 
	C241.495621,276.912964 242.846313,276.430817 243.987823,275.644836 
	C249.574585,271.798096 255.189072,267.982086 260.620697,263.923615 
	C263.291046,261.928375 265.075226,262.178162 267.364777,264.580322 
	C274.339722,271.898438 281.593933,278.949493 288.627411,286.212982 
	C292.484253,290.195923 296.115509,294.397308 300.086792,298.762177 
	C301.286560,297.080322 301.736053,296.584229 302.035614,296.009888 
	C305.374756,289.608124 308.728363,283.213226 311.977722,276.765869 
	C312.552948,275.624512 312.928619,274.255768 312.951874,272.983917 
	C313.085724,265.665070 313.030365,258.342804 313.161591,251.023895 
	C313.207031,248.488190 312.529205,247.143982 309.711823,246.676804 
	C301.542358,245.322098 293.441589,243.559280 285.287415,242.104980 
	C274.518707,240.184357 263.726288,238.396057 252.941238,236.567505 
	C246.468491,235.470093 239.990372,234.404358 232.312805,233.123947 
	C233.589188,240.521149 234.734222,247.157013 235.964981,254.662750 
M321.583191,404.882812 
	C321.061340,403.251862 320.110962,401.626709 320.088715,399.988953 
	C319.964386,390.834564 320.202820,381.673492 319.960358,372.524139 
	C319.916687,370.877258 318.455078,369.049316 317.219666,367.696198 
	C314.251434,364.445038 310.888245,361.551056 307.965393,358.263184 
	C306.402039,356.504547 305.420624,354.228546 303.164307,350.524048 
	C294.129395,360.103149 285.772461,369.022247 277.337738,377.867126 
	C275.075867,380.239014 276.547729,382.004669 277.903107,383.933838 
	C287.211426,397.182922 296.495544,410.449097 305.809875,423.693970 
	C311.271149,431.459808 316.773834,439.196533 322.588165,447.413116 
	C331.650391,434.805664 340.336304,422.721680 349.616669,409.810730 
	C339.586731,408.178314 330.942780,406.771454 321.583191,404.882812 
M331.944702,211.546005 
	C328.364319,206.441910 324.783905,201.337814 320.859650,195.743515 
	C311.863922,208.151398 303.185730,220.121277 293.794830,233.074188 
	C302.744568,234.757416 310.610260,236.638718 318.586914,237.572632 
	C322.768036,238.062164 323.342957,239.805954 323.242950,243.305588 
	C323.038422,250.465088 323.358978,257.641846 323.074097,264.795990 
	C322.890167,269.415924 323.286865,272.835144 328.458038,274.986298 
	C331.355042,276.191406 333.442535,279.700195 335.495056,282.467438 
	C337.209229,284.778564 338.341858,287.520996 339.961212,290.493073 
	C349.114716,280.734894 357.919189,271.348816 367.087067,261.575317 
	C356.091797,245.834717 344.285065,228.932388 331.944702,211.546005 
z"/>
<path fill="#CDDED1" opacity="1.000000" stroke="none" 
	d="
M237.452393,422.055115 
	C239.691818,421.046906 242.318069,419.609619 245.108994,419.129364 
	C252.424530,417.870514 259.811890,417.029205 267.594971,416.014160 
	C267.380219,416.964874 266.839325,418.668610 266.087219,418.767578 
	C256.714050,420.001160 247.310226,421.001740 237.452393,422.055115 
z"/>
<path fill="#C3DAC4" opacity="1.000000" stroke="none" 
	d="
M374.519226,415.764954 
	C377.188446,413.190155 385.646027,413.609497 388.204376,416.398987 
	C388.230530,416.427521 388.073029,416.675537 387.958496,416.768158 
	C387.834259,416.868500 387.659882,416.906830 387.191101,417.040009 
	C382.898193,416.687012 378.921661,416.266235 374.519226,415.764954 
z"/>
<path fill="#C7D6CB" opacity="1.000000" stroke="none" 
	d="
M409.428131,421.944458 
	C411.899506,419.069366 414.678497,419.179474 416.982239,422.627136 
	C414.605927,422.684082 412.218872,422.333923 409.428131,421.944458 
z"/>
<path fill="#CDDED1" opacity="1.000000" stroke="none" 
	d="
M220.158783,423.347992 
	C221.075928,423.463196 221.998505,423.925659 222.968048,424.733948 
	C222.064758,424.618225 221.114487,424.156708 220.158783,423.347992 
z"/>
<path fill="#CDDED1" opacity="1.000000" stroke="none" 
	d="
M226.333099,425.000549 
	C226.873474,424.506470 227.750000,424.009827 228.825653,423.774841 
	C228.239609,424.357025 227.454437,424.677521 226.333099,425.000549 
z"/>
<path fill="#CDDED1" opacity="1.000000" stroke="none" 
	d="
M233.389465,423.114441 
	C233.867798,422.694855 234.684418,422.249481 235.803802,421.934021 
	C235.313629,422.405518 234.520691,422.747101 233.389465,423.114441 
z"/>
<path fill="#C7D6CB" opacity="1.000000" stroke="none" 
	d="
M419.411255,423.111572 
	C420.214233,422.910187 421.421631,422.713226 422.844910,422.791199 
	C421.979095,423.082733 420.897400,423.099365 419.411255,423.111572 
z"/>
<path fill="#3C6542" opacity="1.000000" stroke="none" 
	d="
M380.999939,323.102478 
	C387.327667,323.121155 393.185028,322.778931 398.974304,323.258575 
	C404.220612,323.693207 405.495850,321.121765 406.042053,316.674713 
	C406.927185,309.468384 408.265991,302.317780 409.661407,293.591919 
	C422.463318,302.839722 434.373718,311.443481 447.192993,320.703827 
	C424.507568,336.727509 402.474457,352.290375 381.843689,366.862762 
	C369.347137,355.130524 357.165466,343.990112 345.453918,332.375610 
	C343.720245,330.656311 344.207733,326.697266 343.542847,323.099579 
	C356.623901,323.099579 368.561920,323.099579 380.999939,323.102478 
M377.574921,360.008942 
	C378.388092,360.164917 379.206482,360.476227 380.013458,360.448975 
	C382.888153,360.351837 385.105499,358.885315 384.813171,355.972473 
	C384.614410,353.991730 383.396912,351.315979 381.815674,350.454041 
	C379.306213,349.086151 377.036682,350.340942 375.343872,353.161774 
	C373.488647,356.253204 375.708435,357.706055 377.574921,360.008942 
z"/>
<path fill="#3C6543" opacity="1.000000" stroke="none" 
	d="
M276.617798,364.615662 
	C272.381775,368.800354 268.197723,372.571075 264.510468,376.777313 
	C263.559082,377.862610 263.407837,380.782990 264.192078,382.060486 
	C267.657715,387.705658 271.621796,393.043304 275.352173,398.528473 
	C276.338196,399.978302 277.134399,401.557159 278.375519,403.692200 
	C263.323669,406.258789 249.044632,408.693573 233.737762,411.303650 
	C234.732498,404.739685 235.509613,399.086853 236.458618,393.463043 
	C238.226654,382.985687 240.081680,372.522919 241.924942,362.058380 
	C243.623169,352.417114 245.249298,342.760284 247.201202,333.170166 
	C247.445984,331.967499 249.477554,330.263763 250.692200,330.254669 
	C265.683685,330.142517 280.678436,330.233093 295.668060,330.506836 
	C297.057861,330.532227 299.418640,331.997131 299.603149,333.085999 
	C300.137573,336.240265 302.295868,339.464813 298.744720,342.742645 
	C291.212830,349.694916 284.124756,357.127960 276.617798,364.615662 
M258.879425,343.766235 
	C259.807678,341.722076 261.291809,339.715057 261.431915,337.618225 
	C261.502930,336.555084 259.256805,334.572052 257.863739,334.374146 
	C256.205719,334.138641 253.672394,334.873138 252.746658,336.108093 
	C251.785873,337.389801 251.482361,340.433014 252.359589,341.510040 
	C253.516815,342.930847 256.104492,343.186615 258.879425,343.766235 
z"/>
<path fill="#3B6542" opacity="1.000000" stroke="none" 
	d="
M220.826202,304.798279 
	C233.866821,295.668640 246.712936,286.884949 259.337494,277.793640 
	C262.437012,275.561584 264.100128,275.649384 266.772095,278.471771 
	C276.560028,288.810669 286.569855,298.946564 296.724304,308.926788 
	C299.607635,311.760651 299.466675,314.903595 298.732635,318.066803 
	C298.511383,319.020264 295.977234,320.003937 294.497589,320.011566 
	C277.839905,320.097687 261.178680,320.141998 244.524536,319.848846 
	C239.996628,319.769135 238.127625,320.856659 237.634003,325.718658 
	C236.871750,333.226868 235.059418,340.628448 233.449402,349.399353 
	C220.509094,340.042084 208.518204,331.371338 196.264679,322.510681 
	C204.505127,316.579468 212.527588,310.805145 220.826202,304.798279 
M268.128693,286.772339 
	C267.441193,283.553741 265.316742,281.297363 262.280853,282.620087 
	C260.417114,283.432129 258.541992,286.497345 258.542938,288.549957 
	C258.543610,290.047882 261.427521,292.494354 263.325958,292.831970 
	C266.658936,293.424683 268.381897,291.063049 268.128693,286.772339 
z"/>
<path fill="#3B6542" opacity="1.000000" stroke="none" 
	d="
M371.846863,273.838318 
	C372.909393,272.769989 373.613464,271.837128 374.423889,271.008240 
	C381.606476,263.662140 381.599884,263.676208 375.625732,255.223541 
	C372.112000,250.252060 368.644165,245.248123 364.510681,239.336319 
	C379.712952,236.870056 394.124390,234.532089 409.257416,232.077072 
	C409.033600,235.323090 409.062531,237.451645 408.716736,239.517471 
	C405.762360,257.168427 402.778442,274.814636 399.716095,292.447144 
	C398.721954,298.171295 397.633789,303.892029 396.215179,309.520203 
	C395.877045,310.861755 394.053558,312.800446 392.891022,312.816101 
	C376.783386,313.033478 360.671875,312.963135 345.045135,312.963135 
	C342.034637,305.775787 343.424591,301.130859 348.462585,296.634552 
	C356.488525,289.471527 363.878693,281.596161 371.846863,273.838318 
M381.761597,304.481140 
	C381.968170,308.187408 384.488800,309.702576 387.482880,308.809357 
	C389.291046,308.269928 391.665985,305.685883 391.644958,304.048035 
	C391.623108,302.346069 389.298828,299.740051 387.486084,299.203766 
	C384.425171,298.298309 382.123169,300.142090 381.761597,304.481140 
z"/>
<path fill="#3B6543" opacity="1.000000" stroke="none" 
	d="
M334.312012,360.281708 
	C336.979034,354.975952 339.418915,349.958557 342.501495,343.619507 
	C348.688385,350.194885 354.725281,356.700378 360.864319,363.108063 
	C366.111877,368.585205 371.540405,373.889587 376.757904,379.394562 
	C378.817352,381.567535 380.362427,380.749146 382.330078,379.333801 
	C388.212219,375.102661 394.190796,371.005035 400.158386,366.894043 
	C400.920776,366.368927 401.841431,366.073547 403.583008,365.247589 
	C406.091400,379.995941 408.510651,394.220306 411.142853,409.696747 
	C404.476501,408.618408 398.533722,407.665375 392.593872,406.694641 
	C378.378357,404.371399 364.154846,402.094849 349.954163,399.683990 
	C344.401093,398.741211 338.843262,397.700165 333.416779,396.227661 
	C332.082092,395.865509 330.379639,393.664368 330.336578,392.262848 
	C330.086365,384.117676 329.997223,375.941437 330.496002,367.815125 
	C330.648193,365.336029 332.831696,362.981598 334.312012,360.281708 
M341.128937,382.018005 
	C340.145477,381.967682 339.137573,381.753937 338.182983,381.896698 
	C334.884064,382.390015 333.854004,384.687653 334.245453,387.629517 
	C334.650482,390.673096 336.718262,392.767303 339.649017,391.803406 
	C341.455261,391.209351 343.187805,388.875946 343.869293,386.941528 
	C344.282837,385.767700 342.628693,383.865448 341.128937,382.018005 
z"/>
<path fill="#3B6542" opacity="1.000000" stroke="none" 
	d="
M235.922119,254.227814 
	C234.734222,247.157013 233.589188,240.521149 232.312805,233.123947 
	C239.990372,234.404358 246.468491,235.470093 252.941238,236.567505 
	C263.726288,238.396057 274.518707,240.184357 285.287415,242.104980 
	C293.441589,243.559280 301.542358,245.322098 309.711823,246.676804 
	C312.529205,247.143982 313.207031,248.488190 313.161591,251.023895 
	C313.030365,258.342804 313.085724,265.665070 312.951874,272.983917 
	C312.928619,274.255768 312.552948,275.624512 311.977722,276.765869 
	C308.728363,283.213226 305.374756,289.608124 302.035614,296.009888 
	C301.736053,296.584229 301.286560,297.080322 300.086792,298.762177 
	C296.115509,294.397308 292.484253,290.195923 288.627411,286.212982 
	C281.593933,278.949493 274.339722,271.898438 267.364777,264.580322 
	C265.075226,262.178162 263.291046,261.928375 260.620697,263.923615 
	C255.189072,267.982086 249.574585,271.798096 243.987823,275.644836 
	C242.846313,276.430817 241.495621,276.912964 239.581909,277.862335 
	C238.297684,269.625122 237.131332,262.143951 235.922119,254.227814 
M308.773346,258.798279 
	C308.881744,257.811432 309.093018,256.823273 309.080078,255.838028 
	C309.034088,252.331238 306.575348,250.799484 303.814575,251.569565 
	C301.954834,252.088333 299.219879,254.876770 299.448883,256.207001 
	C299.791107,258.194855 302.171661,260.164062 304.154388,261.369263 
	C304.919098,261.834076 306.967712,260.186615 308.773346,258.798279 
z"/>
<path fill="#3C6542" opacity="1.000000" stroke="none" 
	d="
M321.941040,405.123718 
	C330.942780,406.771454 339.586731,408.178314 349.616669,409.810730 
	C340.336304,422.721680 331.650391,434.805664 322.588165,447.413116 
	C316.773834,439.196533 311.271149,431.459808 305.809875,423.693970 
	C296.495544,410.449097 287.211426,397.182922 277.903107,383.933838 
	C276.547729,382.004669 275.075867,380.239014 277.337738,377.867126 
	C285.772461,369.022247 294.129395,360.103149 303.164307,350.524048 
	C305.420624,354.228546 306.402039,356.504547 307.965393,358.263184 
	C310.888245,361.551056 314.251434,364.445038 317.219666,367.696198 
	C318.455078,369.049316 319.916687,370.877258 319.960358,372.524139 
	C320.202820,381.673492 319.964386,390.834564 320.088715,399.988953 
	C320.110962,401.626709 321.061340,403.251862 321.941040,405.123718 
M290.253204,375.653198 
	C286.729462,373.403992 284.371857,375.625183 283.356781,378.358307 
	C282.781769,379.906738 283.867279,383.373962 285.159851,383.997528 
	C286.936584,384.854706 290.399567,384.678528 291.737946,383.435486 
	C294.047180,381.290771 294.145447,378.128540 290.253204,375.653198 
z"/>
<path fill="#3B6542" opacity="1.000000" stroke="none" 
	d="
M332.211487,211.788025 
	C344.285065,228.932388 356.091797,245.834717 367.087067,261.575317 
	C357.919189,271.348816 349.114716,280.734894 339.961212,290.493073 
	C338.341858,287.520996 337.209229,284.778564 335.495056,282.467438 
	C333.442535,279.700195 331.355042,276.191406 328.458038,274.986298 
	C323.286865,272.835144 322.890167,269.415924 323.074097,264.795990 
	C323.358978,257.641846 323.038422,250.465088 323.242950,243.305588 
	C323.342957,239.805954 322.768036,238.062164 318.586914,237.572632 
	C310.610260,236.638718 302.744568,234.757416 293.794830,233.074188 
	C303.185730,220.121277 311.863922,208.151398 320.859650,195.743515 
	C324.783905,201.337814 328.364319,206.441910 332.211487,211.788025 
M351.872162,259.328156 
	C348.890167,263.504974 349.837494,267.474213 354.172974,267.808746 
	C355.986023,267.948669 358.567932,266.947052 359.607819,265.566376 
	C360.481354,264.406616 360.303772,260.848877 359.393646,260.284515 
	C357.465302,259.088715 354.755524,259.153107 351.872162,259.328156 
z"/>
<path fill="#43824A" opacity="1.000000" stroke="none" 
	d="
M325.914215,298.001587 
	C326.694336,314.031464 327.474457,330.061371 327.678406,346.559753 
	C323.523712,347.028259 319.945190,347.028259 316.627960,347.028259 
	C316.041443,344.168579 315.619141,342.109497 315.196838,340.050385 
	C315.362640,336.643463 315.528412,333.236542 316.071259,329.190674 
	C316.373657,326.055084 316.298981,323.558502 316.224335,321.061890 
	C316.527802,313.694824 316.831268,306.327759 317.663574,298.495789 
	C320.766357,298.021118 323.340271,298.011353 325.914215,298.001587 
z"/>
<path fill="#559D53" opacity="1.000000" stroke="none" 
	d="
M325.987000,297.584900 
	C323.340271,298.011353 320.766357,298.021118 317.770996,298.042358 
	C317.281281,297.393158 317.158508,296.732910 317.153961,296.071869 
	C317.130707,292.713409 317.691742,289.210815 321.722595,289.072113 
	C325.881439,288.929108 325.719971,292.703552 326.018524,295.670502 
	C326.068390,296.166107 326.047821,296.668823 325.987000,297.584900 
z"/>
<path fill="#68A368" opacity="1.000000" stroke="none" 
	d="
M314.903625,340.298828 
	C315.619141,342.109497 316.041443,344.168579 316.627960,347.028259 
	C319.945190,347.028259 323.523712,347.028259 327.567963,347.019104 
	C326.469055,350.484161 323.880829,352.781036 320.011536,351.720520 
	C315.248230,350.415009 313.695099,346.688599 314.903625,340.298828 
z"/>
<path fill="#68A368" opacity="1.000000" stroke="none" 
	d="
M315.938965,321.310608 
	C316.298981,323.558502 316.373657,326.055084 316.133057,328.790741 
	C315.763031,326.539642 315.708282,324.049500 315.938965,321.310608 
z"/>
<path fill="#CBD5AD" opacity="1.000000" stroke="none" 
	d="
M377.250183,359.853058 
	C375.708435,357.706055 373.488647,356.253204 375.343872,353.161774 
	C377.036682,350.340942 379.306213,349.086151 381.815674,350.454041 
	C383.396912,351.315979 384.614410,353.991730 384.813171,355.972473 
	C385.105499,358.885315 382.888153,360.351837 380.013458,360.448975 
	C379.206482,360.476227 378.388092,360.164917 377.250183,359.853058 
z"/>
<path fill="#CAD4AC" opacity="1.000000" stroke="none" 
	d="
M258.478333,343.854736 
	C256.104492,343.186615 253.516815,342.930847 252.359589,341.510040 
	C251.482361,340.433014 251.785873,337.389801 252.746658,336.108093 
	C253.672394,334.873138 256.205719,334.138641 257.863739,334.374146 
	C259.256805,334.572052 261.502930,336.555084 261.431915,337.618225 
	C261.291809,339.715057 259.807678,341.722076 258.478333,343.854736 
z"/>
<path fill="#C8D3AB" opacity="1.000000" stroke="none" 
	d="
M268.164124,287.189941 
	C268.381897,291.063049 266.658936,293.424683 263.325958,292.831970 
	C261.427521,292.494354 258.543610,290.047882 258.542938,288.549957 
	C258.541992,286.497345 260.417114,283.432129 262.280853,282.620087 
	C265.316742,281.297363 267.441193,283.553741 268.164124,287.189941 
z"/>
<path fill="#C8D4AB" opacity="1.000000" stroke="none" 
	d="
M381.763489,304.062683 
	C382.123169,300.142090 384.425171,298.298309 387.486084,299.203766 
	C389.298828,299.740051 391.623108,302.346069 391.644958,304.048035 
	C391.665985,305.685883 389.291046,308.269928 387.482880,308.809357 
	C384.488800,309.702576 381.968170,308.187408 381.763489,304.062683 
z"/>
<path fill="#CAD5AD" opacity="1.000000" stroke="none" 
	d="
M341.516174,382.154236 
	C342.628693,383.865448 344.282837,385.767700 343.869293,386.941528 
	C343.187805,388.875946 341.455261,391.209351 339.649017,391.803406 
	C336.718262,392.767303 334.650482,390.673096 334.245453,387.629517 
	C333.854004,384.687653 334.884064,382.390015 338.182983,381.896698 
	C339.137573,381.753937 340.145477,381.967682 341.516174,382.154236 
z"/>
<path fill="#CBD5AD" opacity="1.000000" stroke="none" 
	d="
M308.602356,259.149902 
	C306.967712,260.186615 304.919098,261.834076 304.154388,261.369263 
	C302.171661,260.164062 299.791107,258.194855 299.448883,256.207001 
	C299.219879,254.876770 301.954834,252.088333 303.814575,251.569565 
	C306.575348,250.799484 309.034088,252.331238 309.080078,255.838028 
	C309.093018,256.823273 308.881744,257.811432 308.602356,259.149902 
z"/>
<path fill="#CCD6AE" opacity="1.000000" stroke="none" 
	d="
M290.589905,375.795227 
	C294.145447,378.128540 294.047180,381.290771 291.737946,383.435486 
	C290.399567,384.678528 286.936584,384.854706 285.159851,383.997528 
	C283.867279,383.373962 282.781769,379.906738 283.356781,378.358307 
	C284.371857,375.625183 286.729462,373.403992 290.589905,375.795227 
z"/>
<path fill="#CBD6AD" opacity="1.000000" stroke="none" 
	d="
M352.119171,259.014435 
	C354.755524,259.153107 357.465302,259.088715 359.393646,260.284515 
	C360.303772,260.848877 360.481354,264.406616 359.607819,265.566376 
	C358.567932,266.947052 355.986023,267.948669 354.172974,267.808746 
	C349.837494,267.474213 348.890167,263.504974 352.119171,259.014435 
z"/>
</svg>