<?xml version="1.0" encoding="UTF-8" standalone="no" ?>
<!DOCTYPE svg PUBLIC "-//W3C//DTD SVG 1.1//EN" "http://www.w3.org/Graphics/SVG/1.1/DTD/svg11.dtd">
<svg xmlns="http://www.w3.org/2000/svg" xmlns:xlink="http://www.w3.org/1999/xlink" version="1.1" width="1080" height="1080" viewBox="0 0 1080 1080" xml:space="preserve">
<desc>Created with Fabric.js 5.2.4</desc>
<defs>
</defs>
<rect x="0" y="0" width="100%" height="100%" fill="transparent"></rect>
<g transform="matrix(1 0 0 1 540 540)" id="397fb51f-5851-4582-95d4-e251bcc65827"  >
<rect style="stroke: none; stroke-width: 1; stroke-dasharray: none; stroke-linecap: butt; stroke-dashoffset: 0; stroke-linejoin: miter; stroke-miterlimit: 4; fill: rgb(255,255,255); fill-rule: nonzero; opacity: 1; visibility: hidden;" vector-effect="non-scaling-stroke"  x="-540" y="-540" rx="0" ry="0" width="1080" height="1080" />
</g>
<g transform="matrix(1 0 0 1 540 540)" id="a9cb8de7-5eed-44b0-846c-4d72c250e777"  >
</g>
<g transform="matrix(8 0 0 8 160 540)"  >
<path style="stroke: none; stroke-width: 1; stroke-dasharray: none; stroke-linecap: butt; stroke-dashoffset: 0; stroke-linejoin: miter; stroke-miterlimit: 4; fill: rgb(255,255,255); fill-opacity: 0.1; fill-rule: nonzero; opacity: 1;" vector-effect="non-scaling-stroke"  transform=" translate(-20, -20)" d="M 19.9999 40 C 31.0456 40 39.9999 31.0457 39.9999 20 C 39.9999 8.9543 31.0456 0 19.9999 0 C 8.95424 0 -0.0000610352 8.9543 -0.0000610352 20 C -0.0000610352 31.0457 8.95424 40 19.9999 40 Z" stroke-linecap="round" />
</g>
<g transform="matrix(5.62 0 0 5.62 195.68 524.46)"  >
<path style="stroke: none; stroke-width: 1; stroke-dasharray: none; stroke-linecap: butt; stroke-dashoffset: 0; stroke-linejoin: miter; stroke-miterlimit: 4; fill: rgb(255,255,255); fill-rule: nonzero; opacity: 1;" vector-effect="non-scaling-stroke"  transform=" translate(-29.44, -17.62)" d="M 26.9983 12 L 26.8892 12.3711 L 26.8892 23.1393 L 26.9983 23.2483 L 31.9968 20.2937 L 26.9983 12 Z" stroke-linecap="round" />
</g>
<g transform="matrix(5.62 0 0 5.62 168.02 524.46)"  >
<path style="stroke: none; stroke-width: 1; stroke-dasharray: none; stroke-linecap: butt; stroke-dashoffset: 0; stroke-linejoin: miter; stroke-miterlimit: 4; fill: rgb(255,255,255); fill-rule: nonzero; opacity: 1;" vector-effect="non-scaling-stroke"  transform=" translate(-24.5, -17.62)" d="M 26.9984 12 L 21.9999 20.2937 L 26.9984 23.2483 L 26.9984 18.0217 L 26.9984 12 Z" stroke-linecap="round" />
</g>
<g transform="matrix(5.62 0 0 5.62 195.84 568.41)"  >
<path style="stroke: none; stroke-width: 1; stroke-dasharray: none; stroke-linecap: butt; stroke-dashoffset: 0; stroke-linejoin: miter; stroke-miterlimit: 4; fill: rgb(255,255,255); fill-rule: nonzero; opacity: 1;" vector-effect="non-scaling-stroke"  transform=" translate(-29.47, -25.44)" d="M 26.9986 24.8742 L 26.9371 24.9492 L 26.9371 28.7851 L 26.9986 28.9648 L 32.0001 21.9211 L 26.9986 24.8742 Z" stroke-linecap="round" />
</g>
<g transform="matrix(5.62 0 0 5.62 167.9 568.41)"  >
<path style="stroke: none; stroke-width: 1; stroke-dasharray: none; stroke-linecap: butt; stroke-dashoffset: 0; stroke-linejoin: miter; stroke-miterlimit: 4; fill: rgb(255,255,255); fill-rule: nonzero; opacity: 1;" vector-effect="non-scaling-stroke"  transform=" translate(-24.5, -25.44)" d="M 26.9984 28.9648 L 26.9984 24.8742 L 21.9999 21.9211 L 26.9984 28.9648 Z" stroke-linecap="round" />
</g>
<g transform="matrix(5.62 0 0 5.62 196 541.39)"  >
<path style="stroke: none; stroke-width: 1; stroke-dasharray: none; stroke-linecap: butt; stroke-dashoffset: 0; stroke-linejoin: miter; stroke-miterlimit: 4; fill: rgb(255,255,255); fill-rule: nonzero; opacity: 1;" vector-effect="non-scaling-stroke"  transform=" translate(-29.5, -20.63)" d="M 26.9984 23.2482 L 31.9968 20.2937 L 26.9984 18.0217 L 26.9984 23.2482 Z" stroke-linecap="round" />
</g>
<g transform="matrix(5.62 0 0 5.62 167.9 540.63)"  >
<path style="stroke: none; stroke-width: 1; stroke-dasharray: none; stroke-linecap: butt; stroke-dashoffset: 0; stroke-linejoin: miter; stroke-miterlimit: 4; fill: rgb(255,255,255); fill-rule: nonzero; opacity: 1;" vector-effect="non-scaling-stroke"  transform=" translate(-24.5, -20.63)" d="M 21.9999 20.2937 L 26.9983 23.2482 L 26.9983 18.0217 L 21.9999 20.2937 Z" stroke-linecap="round" />
</g>
<g transform="matrix(6.61 0 0 6.61 182.12 546.42)" style="" id="4737219f-362f-4466-80dd-6287823327f6"  >
		<text xml:space="preserve" font-family="Lato" font-size="40" font-style="normal" font-weight="400" style="stroke: none; stroke-width: 1; stroke-dasharray: none; stroke-linecap: butt; stroke-dashoffset: 0; stroke-linejoin: miter; stroke-miterlimit: 4; fill: rgb(255,255,255); fill-rule: nonzero; opacity: 1; white-space: pre;" ><tspan x="-15.06" y="12.57" >D</tspan></text>
</g>
<g transform="matrix(3.7 0 0 3.7 712.86 550.71)" style="" id="5c368b41-ad2d-49c4-ae38-974df4c197c9"  >
		<text xml:space="preserve" font-family="Lato" font-size="40" font-style="normal" font-weight="700" style="stroke: none; stroke-width: 1; stroke-dasharray: none; stroke-linecap: butt; stroke-dashoffset: 0; stroke-linejoin: miter; stroke-miterlimit: 4; fill: rgb(255,255,255); fill-rule: nonzero; opacity: 1; white-space: pre;" ><tspan x="-72.23" y="12.57" >DECCO</tspan></text>
</g>
<g transform="matrix(0 0 0 0 0 0)"  >
<g style=""   >
</g>
</g>
<g transform="matrix(0 0 0 0 0 0)"  >
<g style=""   >
</g>
</g>
<g transform="matrix(0 0 0 0 0 0)"  >
<g style=""   >
</g>
</g>
<g transform="matrix(0 0 0 0 0 0)"  >
<g style=""   >
</g>
</g>
<g transform="matrix(0 0 0 0 0 0)"  >
<g style=""   >
</g>
</g>
<g transform="matrix(0 0 0 0 0 0)"  >
<g style=""   >
</g>
</g>
<g transform="matrix(0 0 0 0 0 0)"  >
<g style=""   >
</g>
</g>
<g transform="matrix(0 0 0 0 0 0)"  >
<g style=""   >
</g>
</g>
<g transform="matrix(NaN NaN NaN NaN 0 0)"  >
<g style=""   >
</g>
</g>
<g transform="matrix(NaN NaN NaN NaN 0 0)"  >
<g style=""   >
</g>
</g>
<g transform="matrix(NaN NaN NaN NaN 0 0)"  >
<g style=""   >
</g>
</g>
<g transform="matrix(NaN NaN NaN NaN 0 0)"  >
<g style=""   >
</g>
</g>
<g transform="matrix(NaN NaN NaN NaN 0 0)"  >
<g style=""   >
</g>
</g>
<g transform="matrix(NaN NaN NaN NaN 0 0)"  >
<g style=""   >
</g>
</g>
<g transform="matrix(NaN NaN NaN NaN 0 0)"  >
<g style=""   >
</g>
</g>
</svg>